
      <svg data-logo="logo" xmlns="http://www.w3.org/2000/svg" viewBox="0 0 237 42">
        <g id="logogram" transform="translate(0, 1) rotate(0) "><path d="M10 15.1533L56.0254 27.3643C57.7788 27.8295 59 29.4164 59 31.2305V40H49V35.8457L29.501 30.6729L10 35.8457V40H0V31.2305C4.53996e-06 29.4164 1.22118 27.8295 2.97461 27.3643L10.001 25.499L2.97461 23.6357C1.22116 23.1706 3.02567e-05 21.5836 0 19.7695V14C0 11.7909 1.79086 10 4 10H10V15.1533Z" fill="#0BDC85"/><path d="M55 10C57.2091 10 59 11.7909 59 14V20H49V10H55Z" fill="#0BDC85"/><path d="M45 0C47.2091 0 49 1.79086 49 4V10H10V4C10 1.79086 11.7909 2.81866e-08 14 0H45Z" fill="#0BDC85"/></g>
        <g id="logotype" transform="translate(65, 7.5)"><path fill="#111111" d="M25.11 20.73L25.25 20.73L34.35 0.05L42.19 0.05L42.19 1.38Q40.69 1.41 39.95 1.85Q39.22 2.29 38.97 3.41Q38.73 4.53 38.73 6.66L38.73 6.66L38.73 20.38Q38.73 22.70 38.99 23.80Q39.25 24.90 40.07 25.25Q40.90 25.60 42.54 25.67L42.54 25.67L42.54 27L31.20 27L31.20 25.67Q32.84 25.60 33.67 25.25Q34.49 24.90 34.77 23.85Q35.05 22.80 35.05 20.63L35.05 20.63L35.05 4.39L34.70 4.39L24.48 27.35L23.71 27.35L13.67 4.39L13.53 4.39L13.53 20.38Q13.53 22.70 13.79 23.80Q14.05 24.90 14.87 25.25Q15.70 25.60 17.34 25.67L17.34 25.67L17.34 27L7.58 27L7.58 25.67Q9.22 25.60 10.04 25.25Q10.87 24.90 11.14 23.85Q11.43 22.80 11.43 20.63L11.43 20.63L11.43 6.42Q11.43 4.42 11.18 3.37Q10.94 2.32 10.18 1.89Q9.43 1.45 7.93 1.38L7.93 1.38L7.93 0.05L16.29 0.05L25.11 20.73ZM53.25 2.15L53.25 2.15L53.25 12.19Q55.77 12.19 57.22 11.77Q58.68 11.35 59.27 10.46Q59.87 9.57 59.87 8.17L59.87 8.17L61.09 8.17L61.09 17.73L59.87 17.73Q59.87 16.32 59.31 15.41Q58.75 14.50 57.31 14.05Q55.88 13.59 53.25 13.59L53.25 13.59L53.25 21.50Q53.25 23.01 53.79 23.88Q54.34 24.76 55.60 25.13Q56.86 25.50 59.06 25.50L59.06 25.50Q61.55 25.50 63.03 25.00Q64.52 24.52 65.36 23.34Q66.20 22.17 66.66 20.11L66.66 20.11L67.99 20.11L67.46 27L45.73 27L45.73 25.67Q47.37 25.60 48.19 25.30Q49.02 25.00 49.30 24.16Q49.58 23.32 49.58 21.68L49.58 21.68L49.58 5.37Q49.58 3.72 49.33 2.90Q49.09 2.08 48.33 1.76Q47.58 1.45 46.08 1.38L46.08 1.38L46.08 0.05L66.31 0.05L66.62 6.21L65.40 6.21Q65.12 4.35 64.36 3.34Q63.61 2.32 62.14 1.94Q60.67 1.55 58.29 1.55L58.29 1.55L53.85 1.55Q53.25 1.55 53.25 2.15ZM78.66 2.15L78.66 2.15L78.66 12.19Q81.18 12.19 82.63 11.77Q84.09 11.35 84.68 10.46Q85.28 9.57 85.28 8.17L85.28 8.17L86.50 8.17L86.50 17.73L85.28 17.73Q85.28 16.32 84.72 15.41Q84.16 14.50 82.72 14.05Q81.28 13.59 78.66 13.59L78.66 13.59L78.66 21.50Q78.66 23.01 79.20 23.88Q79.75 24.76 81.00 25.13Q82.27 25.50 84.47 25.50L84.47 25.50Q86.96 25.50 88.44 25.00Q89.93 24.52 90.77 23.34Q91.61 22.17 92.06 20.11L92.06 20.11L93.40 20.11L92.87 27L71.14 27L71.14 25.67Q72.78 25.60 73.60 25.30Q74.42 25.00 74.70 24.16Q74.98 23.32 74.98 21.68L74.98 21.68L74.98 5.37Q74.98 3.72 74.74 2.90Q74.50 2.08 73.74 1.76Q72.99 1.45 71.48 1.38L71.48 1.38L71.48 0.05L91.72 0.05L92.03 6.21L90.81 6.21Q90.53 4.35 89.77 3.34Q89.02 2.32 87.55 1.94Q86.08 1.55 83.70 1.55L83.70 1.55L79.25 1.55Q78.66 1.55 78.66 2.15ZM95.70 0.05L122.13 0.05L122.48 6.73L121.05 6.73Q120.91 4.70 120.26 3.58Q119.61 2.46 118.35 2.01Q117.09 1.55 115.06 1.55L115.06 1.55Q113.34 1.55 112.49 1.66Q111.63 1.76 111.37 1.99Q111.11 2.22 111.11 2.64L111.11 2.64L111.11 21.36Q111.11 22.87 111.40 23.80Q111.70 24.73 112.68 25.16Q113.66 25.60 115.62 25.67L115.62 25.67L115.62 27L102.39 27L102.39 25.67Q104.39 25.60 105.35 25.16Q106.31 24.73 106.63 23.80Q106.94 22.87 106.94 21.36L106.94 21.36L106.94 2.64Q106.94 2.22 106.69 1.99Q106.45 1.76 105.73 1.66Q105.02 1.55 103.51 1.55L103.51 1.55Q102.14 1.55 100.99 1.68Q99.83 1.80 98.96 2.29Q98.08 2.78 97.58 3.83Q97.07 4.88 97 6.73L97 6.73L95.70 6.73L95.70 0.05ZM138.96 27L130.46 27L130.46 25.67Q132.07 25.50 132.88 24.92Q133.68 24.34 134.27 22.84L134.27 22.84L143.38 0.05L144.88 0.05L152.82 19.79Q153.63 21.75 154.22 22.92Q154.82 24.09 155.38 24.67Q155.94 25.25 156.59 25.44Q157.23 25.63 158.14 25.63L158.14 25.63L158.14 27L146.73 27L146.73 25.63Q148.59 25.63 149.29 25.29Q149.99 24.93 149.99 24.13L149.99 24.13Q149.99 23.43 149.83 22.82Q149.67 22.20 149.19 21.02L149.19 21.02L147.75 17.23L138.41 17.23Q137.21 20.11 136.72 21.68Q136.23 23.25 136.23 23.95L136.23 23.95Q136.23 24.93 136.88 25.30Q137.53 25.67 138.96 25.67L138.96 25.67L138.96 27ZM143.13 5.16L139.10 15.48L147.08 15.48L143.27 5.16L143.13 5.16ZM170.60 27L159.26 27L159.26 25.67Q160.91 25.60 161.73 25.25Q162.56 24.90 162.84 23.85Q163.12 22.80 163.12 20.63L163.12 20.63L163.12 6.42Q163.12 4.42 162.87 3.37Q162.63 2.32 161.87 1.89Q161.12 1.45 159.62 1.38L159.62 1.38L159.62 0.05L170.25 0.05L170.25 1.38Q168.75 1.41 168.01 1.85Q167.28 2.29 167.03 3.41Q166.79 4.53 166.79 6.66L166.79 6.66L166.79 20.38Q166.79 22.70 167.05 23.80Q167.31 24.90 168.14 25.25Q168.96 25.60 170.60 25.67L170.60 25.67L170.60 27Z"/></g>
        
      </svg>
    